HIERARCHY
ROOT Hips
{
  OFFSET 0.0 0.0 0.0
  CHANNELS 6 Xposition Yposition Zposition Zrotation Xrotation Yrotation
  JOINT Spine
  {
    OFFSET 0.0 0.0 0.0
    CHANNELS 3 Zrotation Xrotation Yrotation
    JOINT Chest
    {
      OFFSET 0.0 10.0 0.0
      CHANNELS 3 Zrotation Xrotation Yrotation
      JOINT Neck
      {
        OFFSET 0.0 5.0 0.0
        CHANNELS 3 Zrotation Xrotation Yrotation
        JOINT Head
        {
          OFFSET 0.0 5.0 0.0
          CHANNELS 3 Zrotation Xrotation Yrotation
          End Site
          {
            OFFSET 0.0 2.0 0.0
          }
        }
      }
      JOINT LeftArm
      {
        OFFSET -5.0 5.0 0.0
        CHANNELS 3 Zrotation Xrotation Yrotation
        JOINT LeftForeArm
        {
          OFFSET -10.0 0.0 0.0
          CHANNELS 3 Zrotation Xrotation Yrotation
          End Site
          {
            OFFSET -5.0 0.0 0.0
          }
        }
      }
      JOINT RightArm
      {
        OFFSET 5.0 5.0 0.0
        CHANNELS 3 Zrotation Xrotation Yrotation
        JOINT RightForeArm
        {
          OFFSET 10.0 0.0 0.0
          CHANNELS 3 Zrotation Xrotation Yrotation
          End Site
          {
            OFFSET 5.0 0.0 0.0
          }
        }
      }
    }
  }
  JOINT LeftUpLeg
  {
    OFFSET -3.0 -10.0 0.0
    CHANNELS 3 Zrotation Xrotation Yrotation
    JOINT LeftLeg
    {
      OFFSET 0.0 -15.0 0.0
      CHANNELS 3 Zrotation Xrotation Yrotation
      End Site
      {
        OFFSET 0.0 -10.0 0.0
      }
    }
  }
  JOINT RightUpLeg
  {
    OFFSET 3.0 -10.0 0.0
    CHANNELS 3 Zrotation Xrotation Yrotation
    JOINT RightLeg
    {
      OFFSET 0.0 -15.0 0.0
      CHANNELS 3 Zrotation Xrotation Yrotation
      End Site
      {
        OFFSET 0.0 -10.0 0.0
      }
    }
  }
}
MOTION
Frames: 10
Frame Time: 0.0333333
0.0 0.0 0.0 0.0 0.0 0.0 0.0 0.0 0.0 0.0 0.0 0.0 0.0 0.0 0.0 0.0 20.0 0.0 0.0 20.0 0.0 0.0 -20.0 0.0 0.0 -20.0 0.0 0.0 20.0 0.0 0.0 20.0 0.0 0.0 -20.0 0.0 0.0 -20.0 0.0 0.0 20.0 0.0
0.0 0.0 5.0 0.0 0.0 0.0 0.0 0.0 0.0 0.0 0.0 0.0 0.0 0.0 0.0 0.0 -20.0 0.0 0.0 -20.0 0.0 0.0 20.0 0.0 0.0 20.0 0.0 0.0 -20.0 0.0 0.0 -20.0 0.0 0.0 20.0 0.0 0.0 20.0 0.0 0.0 -20.0 0.0
0.0 0.0 10.0 0.0 0.0 0.0 0.0 0.0 0.0 0.0 0.0 0.0 0.0 0.0 0.0 0.0 20.0 0.0 0.0 20.0 0.0 0.0 -20.0 0.0 0.0 -20.0 0.0 0.0 20.0 0.0 0.0 20.0 0.0 0.0 -20.0 0.0 0.0 -20.0 0.0 0.0 20.0 0.0
0.0 0.0 15.0 0.0 0.0 0.0 0.0 0.0 0.0 0.0 0.0 0.0 0.0 0.0 0.0 0.0 -20.0 0.0 0.0 -20.0 0.0 0.0 20.0 0.0 0.0 20.0 0.0 0.0 -20.0 0.0 0.0 -20.0 0.0 0.0 20.0 0.0 0.0 20.0 0.0 0.0 -20.0 0.0
0.0 0.0 20.0 0.0 0.0 0.0 0.0 0.0 0.0 0.0 0.0 0.0 0.0 0.0 0.0 0.0 20.0 0.0 0.0 20.0 0.0 0.0 -20.0 0.0 0.0 -20.0 0.0 0.0 20.0 0.0 0.0 20.0 0.0 0.0 -20.0 0.0 0.0 -20.0 0.0 0.0 20.0 0.0
0.0 0.0 25.0 0.0 0.0 0.0 0.0 0.0 0.0 0.0 0.0 0.0 0.0 0.0 0.0 0.0 -20.0 0.0 0.0 -20.0 0.0 0.0 20.0 0.0 0.0 20.0 0.0 0.0 -20.0 0.0 0.0 -20.0 0.0 0.0 20.0 0.0 0.0 20.0 0.0 0.0 -20.0 0.0
0.0 0.0 30.0 0.0 0.0 0.0 0.0 0.0 0.0 0.0 0.0 0.0 0.0 0.0 0.0 0.0 20.0 0.0 0.0 20.0 0.0 0.0 -20.0 0.0 0.0 -20.0 0.0 0.0 20.0 0.0 0.0 20.0 0.0 0.0 -20.0 0.0 0.0 -20.0 0.0 0.0 20.0 0.0
0.0 0.0 35.0 0.0 0.0 0.0 0.0 0.0 0.0 0.0 0.0 0.0 0.0 0.0 0.0 0.0 -20.0 0.0 0.0 -20.0 0.0 0.0 20.0 0.0 0.0 20.0 0.0 0.0 -20.0 0.0 0.0 -20.0 0.0 0.0 20.0 0.0 0.0 20.0 0.0 0.0 -20.0 0.0
0.0 0.0 40.0 0.0 0.0 0.0 0.0 0.0 0.0 0.0 0.0 0.0 0.0 0.0 0.0 0.0 20.0 0.0 0.0 20.0 0.0 0.0 -20.0 0.0 0.0 -20.0 0.0 0.0 20.0 0.0 0.0 20.0 0.0 0.0 -20.0 0.0 0.0 -20.0 0.0 0.0 20.0 0.0
0.0 0.0 45.0 0.0 0.0 0.0 0.0 0.0 0.0 0.0 0.0 0.0 0.0 0.0 0.0 0.0 -20.0 0.0 0.0 -20.0 0.0 0.0 20.0 0.0 0.0 20.0 0.0 0.0 -20.0 0.0 0.0 -20.0 0.0 0.0 20.0 0.0 0.0 20.0 0.0 0.0 -20.0 0.0
